<svg width="318" height="45" viewBox="0 0 318 45" fill="none" xmlns="http://www.w3.org/2000/svg">
	<g clip-path="url(#clip0)">
		<path d="M166.6 23.7992C166.6 18.7992 170.5 14.6992 175.8 14.6992C181.1 14.6992 185 18.6992 185 23.5992V23.6992C185 28.5992 181.1 32.6992 175.8 32.6992C170.5 32.6992 166.6 28.5992 166.6 23.7992ZM181.1 23.7992C181.1 20.6992 178.9 18.1992 175.8 18.1992C172.6 18.1992 170.6 20.6992 170.6 23.6992V23.7992C170.6 26.7992 172.8 29.2992 175.9 29.2992C179 29.1992 181.1 26.6992 181.1 23.7992Z" fill="#002D74" />
		<path d="M189 14.9995H192.9V18.8995C194 16.2995 196 14.5995 199 14.6995V18.8995H198.8C195.3 18.8995 192.9 21.1995 192.9 25.6995V32.2995H189V14.9995Z" fill="#002D74" />
		<path d="M205.099 37.5992V34.3992C205.099 34.3992 207.199 34.3992 209.599 34.3992C213.099 34.3992 215.099 32.5992 215.099 29.0992V27.7992C213.699 29.6992 211.899 30.9992 208.999 30.9992C204.999 30.9992 201.199 27.9992 201.199 22.8992V22.7992C201.199 17.6992 204.999 14.6992 208.999 14.6992C211.899 14.6992 213.699 15.9992 214.999 17.5992V14.9992H218.899V28.6992C218.899 31.5992 218.099 33.7992 216.699 35.1992C215.099 36.7992 212.699 37.4992 209.599 37.4992C206.899 37.5992 205.099 37.5992 205.099 37.5992ZM215.099 22.7992C215.099 19.8992 212.799 17.9992 209.999 17.9992C207.299 17.9992 205.099 19.8992 205.099 22.6992V22.7992C205.099 25.5992 207.299 27.5992 209.999 27.5992C212.799 27.5992 215.099 25.5992 215.099 22.7992Z" fill="#002D74" />
		<path d="M163.2 29.0008V31.0008C163.2 31.1008 163.2 31.2008 163.1 31.2008L161.4 32.2008C161.3 32.2008 161.2 32.2008 161.2 32.2008L159.5 31.2008C159.4 31.2008 159.4 31.1008 159.4 31.0008V29.0008C159.4 28.9008 159.4 28.8008 159.5 28.8008L161.2 27.8008C161.3 27.8008 161.4 27.8008 161.4 27.8008L163.1 28.8008C163.2 28.9008 163.2 28.9008 163.2 29.0008Z" fill="#002D74" />
		<path d="M60.3004 32.5992C55.2004 32.5992 51.4004 28.5992 51.4004 23.6992C51.4004 18.7992 55.2004 14.6992 60.3004 14.6992C63.6004 14.6992 65.6004 15.8992 67.2004 17.6992L64.8004 20.2992C63.6004 18.9992 62.3004 18.1992 60.3004 18.1992C57.4004 18.1992 55.4004 20.6992 55.4004 23.6992C55.4004 26.7992 57.5004 29.2992 60.5004 29.2992C62.4004 29.2992 63.7004 28.3992 65.0004 27.1992L67.4004 29.4992C65.7004 31.2992 63.7004 32.5992 60.3004 32.5992Z" fill="#002D74" />
		<path d="M74.8004 32.5995H70.9004V14.6995H74.8004V18.8995C75.9004 16.2995 77.9004 14.5995 80.9004 14.6995V18.8995H80.7004C77.2004 18.8995 74.8004 21.0995 74.8004 25.6995V32.5995V32.5995Z" fill="#002D74" />
		<path d="M101.501 14.6992L92.8008 37.4992H88.8008L90.7008 32.5992L83.3008 14.6992H87.5008L92.6008 27.9992L97.4008 14.6992H101.501Z" fill="#002D74" />
		<path d="M114.1 32.5992C111.3 32.5992 109.5 31.1992 108.3 29.5992V37.4992H104.4V14.6992H108.3V17.8992C109.6 16.0992 111.4 14.6992 114.1 14.6992C118.2 14.6992 122.1 17.8992 122.1 23.6992C122.1 29.3992 118.2 32.5992 114.1 32.5992ZM113.1 18.0992C110.4 18.0992 108.1 20.2992 108.1 23.5992C108.1 26.8992 110.4 29.0992 113.1 29.0992C115.8 29.0992 118 26.9992 118 23.5992C118.1 20.2992 115.8 18.0992 113.1 18.0992Z" fill="#002D74" />
		<path d="M130.7 18.4008V26.8008C130.7 28.3008 131.5 28.9008 132.8 28.9008H134.3V32.4008H131.6C128.7 32.4008 126.7 31.1008 126.7 27.4008V18.4008H124.5V15.0008H126.7V10.3008H130.6V15.0008H134.3V18.4008H130.7V18.4008Z" fill="#002D74" />
		<path d="M146.799 32.5992C141.599 32.5992 137.699 28.5992 137.699 23.6992C137.699 18.7992 141.599 14.6992 146.899 14.6992C152.199 14.6992 155.999 18.6992 155.999 23.6992C155.999 28.5992 152.099 32.5992 146.799 32.5992ZM146.799 18.1992C143.599 18.1992 141.599 20.6992 141.599 23.6992C141.599 26.7992 143.799 29.2992 146.799 29.2992C149.999 29.2992 151.999 26.7992 151.999 23.7992C152.099 20.6992 149.899 18.1992 146.799 18.1992Z" fill="#002D74" />
		<path d="M19.3 0L0 11.2V33.5L19.3 44.7L38.6 33.5V11.2L19.3 0ZM32.9 30.2L19.3 38L5.7 30.2V14.5L19.3 6.6L32.9 14.5V30.2Z" fill="#002D74" />
		<g style="mix-blend-mode:multiply">
			<path d="M19.3 6.6V0L0 11.2V33.5L19.3 44.7V38L5.7 30.2V14.5L19.3 6.6Z" fill="url(#paint0_linear)" />
		</g>
		<g style="mix-blend-mode:multiply">
			<path d="M19.3008 38V44.6L38.6008 33.4V11.2L19.3008 0V6.6L32.9008 14.4V30.1L19.3008 38Z" fill="url(#paint1_linear)" />
		</g>
		<path d="M28.4008 27.4984L19.3008 32.6984L10.3008 27.4984V17.0984L19.3008 11.8984L28.4008 17.0984V27.4984Z" fill="#002D74" />
		<path d="M233.6 23.7992C233.6 18.7992 237.4 14.6992 242.5 14.6992C245.8 14.6992 247.8 15.8992 249.4 17.6992L247 20.2992C245.8 18.9992 244.5 18.0992 242.5 18.0992C239.6 18.0992 237.5 20.5992 237.5 23.5992V23.6992C237.5 26.7992 239.6 29.1992 242.6 29.1992C244.5 29.1992 245.8 28.2992 247.1 26.9992L249.5 29.2992C247.8 31.1992 245.8 32.4992 242.5 32.4992C237.3 32.6992 233.6 28.6992 233.6 23.7992Z" fill="#002D74" />
		<path d="M253.1 8.5H257V17.8C258.1 16.2 259.7 14.8 262.4 14.8C266.3 14.8 268.5 17.4 268.5 21.4V32.3H264.6V22.5C264.6 19.8 263.3 18.3 260.9 18.3C258.6 18.3 257 19.9 257 22.6V32.3H253.1V8.5V8.5Z" fill="#002D74" />
		<path d="M283.8 32.3008V30.2008C282.6 31.6008 280.8 32.7008 278.2 32.7008C274.9 32.7008 272.1 30.8008 272.1 27.4008V27.3008C272.1 23.5008 275.1 21.7008 279.1 21.7008C281.2 21.7008 282.5 22.0008 283.9 22.4008V22.0008C283.9 19.6008 282.4 18.3008 279.7 18.3008C277.8 18.3008 276.3 18.7008 274.8 19.4008L273.7 16.2008C275.6 15.4008 277.4 14.8008 280.2 14.8008C285.3 14.8008 287.8 17.5008 287.8 22.1008V32.3008H283.8ZM283.9 25.1008C282.9 24.7008 281.5 24.4008 280 24.4008C277.5 24.4008 276.1 25.4008 276.1 27.1008V27.2008C276.1 28.8008 277.6 29.7008 279.4 29.7008C282 29.7008 284 28.2008 284 26.1008V25.1008H283.9Z" fill="#002D74" />
		<path d="M292.699 15.1016H296.599V32.3016H292.699V15.1016Z" fill="#002D74" />
		<path d="M301.801 15.1008H305.701V17.8008C306.801 16.2008 308.401 14.8008 311.101 14.8008C315.001 14.8008 317.201 17.4008 317.201 21.4008V32.3008H313.301V22.5008C313.301 19.8008 312.001 18.3008 309.601 18.3008C307.301 18.3008 305.701 19.9008 305.701 22.6008V32.3008H301.801V15.1008V15.1008Z" fill="#002D74" />
		<path d="M296.601 9.2V11.2C296.601 11.3 296.601 11.4 296.501 11.4L294.801 12.4C294.701 12.4 294.601 12.4 294.601 12.4L292.901 11.4C292.801 11.4 292.801 11.3 292.801 11.2V9.2C292.801 9.1 292.801 9 292.901 9L294.601 8C294.701 8 294.801 8 294.801 8L296.501 9C296.501 9.1 296.601 9.1 296.601 9.2Z" fill="#002D74" />
	</g>
	<defs>
		<linearGradient id="paint0_linear" x1="9.664" y1="44.6421" x2="9.664" y2="0" gradientUnits="userSpaceOnUse">
			<stop stop-color="#002D74" stop-opacity="0" />
			<stop offset="1" stop-color="#002D74" />
		</linearGradient>
		<linearGradient id="paint1_linear" x1="28.9929" y1="44.6421" x2="28.9929" y2="0" gradientUnits="userSpaceOnUse">
			<stop stop-color="#002D74" />
			<stop offset="1" stop-color="#002D74" stop-opacity="0" />
		</linearGradient>
		<clipPath id="clip0">
			<rect width="317.2" height="44.6" fill="white" />
		</clipPath>
	</defs>
</svg>
